<?xml version="1.0" encoding="utf-8"?>
<!-- Generator: Adobe Illustrator 27.6.1, SVG Export Plug-In . SVG Version: 6.00 Build 0)  -->
<svg version="1.1" id="Layer_1" xmlns="http://www.w3.org/2000/svg" xmlns:xlink="http://www.w3.org/1999/xlink" x="0px" y="0px"
	 viewBox="0 0 256 256" style="enable-background:new 0 0 256 256;" xml:space="preserve">
<style type="text/css">
	.st0{fill:#FFFFFF;}
	.st1{fill:#003090;}
</style>
<path class="st0" d="M122.3,217.4L122.3,217.4c-14.9,0-28.5-3.6-40.7-10.9c-12.3-7.3-22-17.6-29.2-30.9c-7.2-13.3-10.8-29-10.8-47.2
	l0,0c0-13.1,2.2-25.2,6.6-36.2c4.4-11,10.4-20.5,18-28.5c7.6-7.9,16.4-14.1,26.3-18.5c9.9-4.4,20.4-6.6,31.4-6.6l0,0
	c7.1,0,13.5,0.9,19.2,2.7c5.7,1.8,10.3,3.5,13.9,5.1l0,0c4.2,1.8,7.2,3,8.9,3.6c1.7,0.6,3.6,1,5.7,1l0,0c2.3,0,3.8-1,4.7-3
	c0.9-2,1.3-4,1.3-5.9l0,0h6.1l-0.5,28l0.5,28.5h-6.1c-0.3-11-3.2-20.5-8.6-28.3c-5.4-7.9-12.2-13.9-20.4-18
	c-8.2-4.1-16.7-6.2-25.4-6.2l0,0c-19,0-33.1,7.1-42.5,21.4s-14.1,34.6-14.1,61l0,0c0,27.9,5,48.5,15.1,61.8
	c10.1,13.3,24.2,19.9,42.3,19.9l0,0c9.1,0,17.1-1.5,24.1-4.4c7-2.9,12.5-6.8,16.5-11.5c4.1-4.8,6.1-9.8,6.1-15l0,0v-6.8
	c0-7.1-1.7-12.2-5-15.3c-3.3-3.1-9.4-5-18.4-5.8l0,0l-10.5-1v-5.8l40.4,1l37.5-1v5.8l-10.9,1c-4.4,0.3-8,2-10.7,5.1
	c-2.8,3.1-4.1,8.4-4.1,16.1l0,0v4.4c0,3.7,0.6,7.2,1.8,10.4c1.2,3.2,2.4,6,3.5,8.3l0,0l3.4,6.1l-5.6,3.6c-2.1-3.4-4.2-5.7-6.2-6.9
	c-2-1.2-3.8-1.8-5.2-1.8l0,0c-2.6,0-4.9,0.6-7,1.9c-2.1,1.3-4.4,2.8-6.8,4.6l0,0c-2.8,1.9-6.1,4.1-9.9,6.3c-3.8,2.3-8.5,4.2-14,5.7
	C137.2,216.6,130.4,217.4,122.3,217.4z"/>
<path class="st1" d="M256,0v256H0V0H256z M202.4,131.4c-4.8-6.2-10.3-11.2-16.9-14.6c-6.6-3.4-15.3-7.1-26-11.2
	c-10.7-4.1-17.8-7.3-20.5-9.8c-2.7-2.5-4.1-5.2-4.1-8c0-3.7,2.1-6.6,5.9-8.7c3.9-2.3,9.1-3.4,15.7-3.4c11.6,0,27.2,4.3,46.5,13.2
	V60.2c-17.3-7.5-34-11.4-49.7-11.4c-17.1,0-30.6,3.9-40.8,11.6c-0.9,0.7-1.6,1.4-2.5,2.1V35.1H69.4v123c0,20.5-7.1,31.7-21,34
	l12.8,36.7c14.8-1.6,26.7-7.8,35.6-18.3c5-5.9,8.4-13,10.5-21.2c14.8,7.1,30.1,10.5,45.9,10.5c16.9,0,30.6-4.1,40.8-12.1
	s15.5-18.9,15.5-32.4C209.5,145.3,207.2,137.6,202.4,131.4z M150.4,172.7c-8.4,0-16.4-1.6-24-4.6c-5-2.1-10.3-4.8-16.2-8.2v-38.3
	c3.2,3.2,6.8,5.7,10.7,7.8c6.4,3.4,15.1,7.1,26,11c11,3.9,17.8,7.3,20.8,10c3,2.7,4.3,5.7,4.3,8.7
	C171.8,168.2,164.7,172.7,150.4,172.7z"/>
</svg>
