<?xml version="1.0" encoding="utf-8"?>
<!-- Generator: Adobe Illustrator 25.0.0, SVG Export Plug-In . SVG Version: 6.00 Build 0)  -->
<svg version="1.1" id="Layer_1" xmlns="http://www.w3.org/2000/svg" xmlns:xlink="http://www.w3.org/1999/xlink" x="0px" y="0px"
	 viewBox="0 0 111.9 112.2" style="enable-background:new 0 0 111.9 112.2;" xml:space="preserve">
<style type="text/css">
	.st0{fill:#003090;}
</style>
<path class="st0" d="M112.2,0v112.2H0V0H112.2z M88.7,57.6c-2.1-2.7-4.5-4.9-7.4-6.4c-2.9-1.5-6.7-3.1-11.4-4.9s-7.8-3.2-9-4.3
	c-1.2-1.1-1.8-2.3-1.8-3.5c0-1.6,0.9-2.9,2.6-3.8c1.7-1,4-1.5,6.9-1.5c5.1,0,11.9,1.9,20.4,5.8V26.4c-7.6-3.3-14.9-5-21.8-5
	c-7.5,0-13.4,1.7-17.9,5.1c-0.4,0.3-0.7,0.6-1.1,0.9v-12H30.4v53.9c0,9-3.1,13.9-9.2,14.9l5.6,16.1c6.5-0.7,11.7-3.4,15.6-8
	c2.2-2.6,3.7-5.7,4.6-9.3c6.5,3.1,13.2,4.6,20.1,4.6c7.4,0,13.4-1.8,17.9-5.3c4.5-3.5,6.8-8.3,6.8-14.2
	C91.8,63.7,90.8,60.3,88.7,57.6z M65.9,75.7c-3.7,0-7.2-0.7-10.5-2c-2.2-0.9-4.5-2.1-7.1-3.6V53.3c1.4,1.4,3,2.5,4.7,3.4
	c2.8,1.5,6.6,3.1,11.4,4.8c4.8,1.7,7.8,3.2,9.1,4.4c1.3,1.2,1.9,2.5,1.9,3.8C75.3,73.7,72.2,75.7,65.9,75.7z"/>
</svg>
