<?xml version="1.0" encoding="utf-8"?>
<!-- Generator: Adobe Illustrator 27.6.1, SVG Export Plug-In . SVG Version: 6.00 Build 0)  -->
<svg version="1.1" xmlns="http://www.w3.org/2000/svg" xmlns:xlink="http://www.w3.org/1999/xlink" x="0px" y="0px"
	 viewBox="0 0 256 256" style="enable-background:new 0 0 256 256;" xml:space="preserve">
<style type="text/css">
	.st0{fill:#003090;}
</style>
<g id="Layer_2">
</g>
<g id="Layer_1">
	<path class="st0" d="M256,0v256H0V0H256z M202.4,131.4c-4.8-6.2-10.3-11.2-16.9-14.6c-6.6-3.4-15.3-7.1-26-11.2
		c-10.7-4.1-17.8-7.3-20.5-9.8c-2.7-2.5-4.1-5.2-4.1-8c0-3.7,2.1-6.6,5.9-8.7c3.9-2.3,9.1-3.4,15.7-3.4c11.6,0,27.2,4.3,46.5,13.2
		V60.2c-17.3-7.5-34-11.4-49.7-11.4c-17.1,0-30.6,3.9-40.8,11.6c-0.9,0.7-1.6,1.4-2.5,2.1V35.1H69.4v123c0,20.5-7.1,31.7-21,34
		l12.8,36.7c14.8-1.6,26.7-7.8,35.6-18.3c5-5.9,8.4-13,10.5-21.2c14.8,7.1,30.1,10.5,45.9,10.5c16.9,0,30.6-4.1,40.8-12.1
		s15.5-18.9,15.5-32.4C209.5,145.3,207.2,137.6,202.4,131.4z M150.4,172.7c-8.4,0-16.4-1.6-24-4.6c-5-2.1-10.3-4.8-16.2-8.2v-38.3
		c3.2,3.2,6.8,5.7,10.7,7.8c6.4,3.4,15.1,7.1,26,11c11,3.9,17.8,7.3,20.8,10c3,2.7,4.3,5.7,4.3,8.7
		C171.8,168.2,164.7,172.7,150.4,172.7z"/>
</g>
</svg>
